<svg xmlns="http://www.w3.org/2000/svg" id="Terms_of_services" x="0" y="0" enable-background="new 0 0 1920 1080" version="1.1" viewBox="0 0 1920 1080" xml:space="preserve"><ellipse cx="900.3" cy="983.4" fill="#2a94f4" opacity=".1" rx="597.3" ry="96.6"/><path fill="#ffbe55" d="M445.4 0h693.3v945.4H445.4z"/><path fill="#f7f7f7" d="M1254.2 983.4H560.9V165.5L663.4 38h590.8z"/><path fill="#f2f2f2" d="M663.4 38v127.5H560.9z"/><path fill="#ffbe55" d="M678.3 255.4h377v14.7h-377zM1074.7 255.4h62v14.7h-62zM678.3 420.7h126.3v14.7H678.3zM819.4 420.7h317.4v14.7H819.4zM678.3 338.1h126.3v14.7H678.3zM832.6 338.1h135.5v14.7H832.6zM981.5 338.1h155.2v14.7H981.5z"/><path fill="#ffbe55" d="M759.8 586h377v14.7h-377z" transform="rotate(-180 948.26 593.342)"/><path fill="#ffbe55" d="M678.3 586h62v14.7h-62z" transform="rotate(-180 709.359 593.342)"/><path fill="#ffbe55" d="M759.8 668.7h377v14.7h-377z" transform="rotate(-180 948.26 675.99)"/><path fill="#ffbe55" d="M678.3 668.7h62v14.7h-62z" transform="rotate(-180 709.359 675.99)"/><path fill="#ffbe55" d="M1010.5 503.4h126.3v14.7h-126.3z" transform="rotate(-180 1073.62 510.694)"/><path fill="#ffbe55" d="M847.1 503.4h135.5v14.7H847.1z" transform="rotate(-180 914.788 510.694)"/><path fill="#ffbe55" d="M678.3 503.4h155.2v14.7H678.3z" transform="rotate(-180 755.956 510.694)"/><path fill="#ffbe55" d="m683.6 839.4-5.3-10.6c.2-.1 14.1-7 29.9-16.4-2.1-2.6-3.9-5.5-5.5-8.6-13.4-26.1-2.5-39.1 2.8-43.4 13-10.7 37.4-9.4 53.2 3 4.2 3.3 6.2 7.9 5.7 12.8-.7 6.5-5.3 17.4-36.4 37.8 8.2 4.8 17.4 6.3 25.2 6.6 24.2.8 46.3-9.8 49.8-15.6l10.5-17.6.5 20.5c.1 4.3 1.8 10.1 3.7 10.7.3.1 6.4 1.8 23.7-20.2l9.3 7.3c-15.5 19.7-27.2 27.4-36.8 24.2-5.1-1.7-8-6.1-9.7-10.4-11.7 7.6-31.8 13.7-51.5 13.1-14.2-.5-26.3-4.5-35.7-11.6-17.2 10.3-32.7 18-33.4 18.4zm44.5-74.5c-5.9 0-11.4 1.5-15.1 4.6-8.9 7.3-3.6 21.2.3 28.8 1.5 2.9 3.2 5.5 5.1 7.7 30.7-19.6 33.9-28.7 34.2-31.1.1-.5.1-1.2-1.2-2.3-6.5-5-15.3-7.7-23.3-7.7z"/><path fill="#0b4870" d="M1165 228.5s-28.2-32.1-19.2-53.1 38-18 42-26 53.1-9.7 56.9 10.3c3.8 20 32.5 65.8-9.3 81.2-41.8 15.4-70.4-12.4-70.4-12.4z"/><path fill="#dba17b" d="M1203.7 321.6s8.3 102-1.6 129.5-42.9 130.1-42.9 130.1l-19.4-9.3s16-85.3 26-133.9c10-48.7 17.2-128.8 30.8-159.5l7.1 43.1z"/><path fill="#ffbe55" d="M1219.7 513.3s-10.9 132.3-10.9 155.3v268.1h29s31-212.1 32-241.1 26.3-151.1 26.3-151.1 22.5-110.5-76.4-31.2z"/><path fill="#ffbe55" d="M1292.8 528.3s10.4 152.4 16.4 178.9c6 26.5 94 229.5 94 229.5h28s-50.3-203.5-62.3-226 4.6-204.7 4.6-204.7l-80.7 22.3z"/><path fill="#2a94f4" d="M1225.9 251.7s112.4-90.4 157.1 307.8h-170.1s16.4-37.6 9.3-87.5c-13.4-94.1-58.5-213.2 3.7-220.3z"/><path fill="#0b4870" d="m1468.9 355.3 19.6 28.1-421.8 315.2-39.6-56.9z"/><path fill="#0e538c" d="m1067.8 697.8-42.6 29.7c-11.9 8.3-28.3 5.4-36.6-6.5l-9.6-13.8c-8.3-11.9-5.4-28.3 6.5-36.6l42.6-29.7 39.7 56.9z"/><path fill="#ffbe55" d="m914.8 716.4-53.5 80.1 41.5-28.9c2.1-4.4 6.1-11.4 13-16.2 10.7-7.5 21.5-10.5 24.1-6.8 2.6 3.7-4 12.8-14.7 20.3-6.9 4.8-14.8 6.2-19.7 6.6L864 800.4l93.6-22.4s46.6-50.2 33.5-69.1c-13-18.9-76.3 7.5-76.3 7.5z"/><path fill="#dba17b" d="m1281.9 322.4 47.4-22.7s61 96.8 68.7 138.2-112.3 107.3-112.3 107.3l-7.5-7.3s69.8-80 88.4-95.4l-84.7-120.1zM1278.2 537.9s-3.6-2-13.6 0-22 15.3-22 15.3-6.8 4.5 18-1.3c0 0-26.7 21.8-36.7 29.3-10 7.5 28.3 17.5 61.8-36l-7.5-7.3z"/><path fill="#2a94f4" d="m1295.9 351.2 47.5-32.8s-30-77-89.8-75.5c-10.1.3-25.2 25.9 42.3 108.3zM1173.4 367.8l41.8 7.3-6.6-116.8s-19.4 9.5-24 31.4c-4.8 22.1-11.2 78.1-11.2 78.1z"/><path fill="#d19574" d="M1217.5 275.1s27.3-4.7 24.3-20.7l-17.4-36-22.7 13.7 15.8 43z"/><path fill="#dba17b" d="M1158.3 202.8c.9 32.4 29.5 58.2 49.1 55.8 26.8-3.3 33.8-25.2 32.2-39.3 0 0 5.7-7.1 5.1-16.9-.9-14.5-10.1-13.3-10.1-4.3 0 15.2-2.6-.7-4.6-12.5s-12.8 26.1-31.7 21.2c-39-9.9-40.9-36.3-40-4z"/><path fill="#0b4870" d="M1208.9 936.7s-2.8 11.4-15 13.3c-20.2 3.2-40.7 4.6-43.3 17.4-2.7 12.8 0 10 0 10h63.4s10-7 18 0h15.3s-3.3-25.1-4-29.1c-.7-4.1-5.3-11.6-5.3-11.6h-29.1zM1402.6 936.7s5 9.3-15 13.3c-20 4.1-40.7 4.6-43.3 17.4-2.7 12.8 0 10 0 10h63.4s10-7 18 0h15.3s-3.3-25.1-4-29.1c-.7-4.1-5.3-11.6-5.3-11.6h-29.1z"/></svg>